# Exported from Wings 3D 2.1.5
mtllib grass2.mtl
o grass_sep3
#8 vertices, 6 faces
v -4.82318864 -1.36941097 -0.19992483
v -4.82318864 12.69058903 -0.19992483
v -4.82318864 12.69058903 -0.19492483
v -4.82318864 -1.36941097 -0.19492483
v 5.17681136 -1.36941097 -0.19992483
v 5.17681136 12.69058903 -0.19992483
v 5.17681136 12.69058903 -0.19492483
v 5.17681136 -1.36941097 -0.19492483
vt 0.0000000e+0 0.0000000e+0
vt 0.0000000e+0 1.00000000
vt 1.00000000 0.0000000e+0
vt 1.00000000 1.00000000
vn -1.00000000 0.0000000e+0 0.0000000e+0
vn 0.0000000e+0 -1.00000000 0.0000000e+0
vn -5.5511151e-17 0.0000000e+0 -1.00000000
vn -1.00000000 0.0000000e+0 0.0000000e+0
vn 0.0000000e+0 1.00000000 0.0000000e+0
vn -5.5511151e-17 0.0000000e+0 -1.00000000
vn -1.00000000 0.0000000e+0 0.0000000e+0
vn 5.5511151e-17 0.0000000e+0 1.00000000
vn 0.0000000e+0 1.00000000 0.0000000e+0
vn -1.00000000 0.0000000e+0 0.0000000e+0
vn 5.5511151e-17 0.0000000e+0 1.00000000
vn 0.0000000e+0 -1.00000000 0.0000000e+0
vn 0.0000000e+0 -1.00000000 0.0000000e+0
vn 1.00000000 0.0000000e+0 0.0000000e+0
vn -5.5511151e-17 0.0000000e+0 -1.00000000
vn 0.0000000e+0 1.00000000 0.0000000e+0
vn 1.00000000 0.0000000e+0 0.0000000e+0
vn -5.5511151e-17 0.0000000e+0 -1.00000000
vn 5.5511151e-17 0.0000000e+0 1.00000000
vn 0.0000000e+0 1.00000000 0.0000000e+0
vn 1.00000000 0.0000000e+0 0.0000000e+0
vn 5.5511151e-17 0.0000000e+0 1.00000000
vn 0.0000000e+0 -1.00000000 0.0000000e+0
vn 1.00000000 0.0000000e+0 0.0000000e+0
g grass_sep3_default
usemtl default
s 2
f 1//2 5//13 8//23 4//12
f 3//9 7//20 6//16 2//5
s 3
f 1//1 4//10 3//7 2//4
f 6//17 7//21 8//24 5//14
g grass_sep3_image
usemtl image
s 1
f 2/2/6 6/4/18 5/3/15 1/1/3
f 4/1/11 8/3/22 7/4/19 3/2/8
o grass_sep2
#8 vertices, 6 faces
v -1.27174185 -0.95907059 3.31722102
v -1.27174185 14.03292941 3.31722102
v -1.26808767 14.03292941 3.31870402
v -1.26808767 -0.95907059 3.31870402
v 1.98215129 -0.95907059 -3.34456177
v 1.98215129 14.03292941 -3.34456177
v 1.98580548 14.03292941 -3.34307877
v 1.98580548 -0.95907059 -3.34307877
vt 0.0000000e+0 0.0000000e+0
vt 0.0000000e+0 1.00000000
vt 1.00000000 0.0000000e+0
vt 1.00000000 1.00000000
vn -0.37604990 0.0000000e+0 0.92659941
vn 0.0000000e+0 -1.00000000 0.0000000e+0
vn -0.89854282 0.0000000e+0 -0.43888587
vn -0.37604990 0.0000000e+0 0.92659941
vn 0.0000000e+0 1.00000000 0.0000000e+0
vn -0.89854282 0.0000000e+0 -0.43888587
vn -0.37604990 0.0000000e+0 0.92659941
vn 0.89854282 0.0000000e+0 0.43888587
vn 0.0000000e+0 1.00000000 0.0000000e+0
vn -0.37604990 0.0000000e+0 0.92659941
vn 0.89854282 0.0000000e+0 0.43888587
vn 0.0000000e+0 -1.00000000 0.0000000e+0
vn 0.0000000e+0 -1.00000000 0.0000000e+0
vn 0.37604990 0.0000000e+0 -0.92659941
vn -0.89854282 0.0000000e+0 -0.43888587
vn 0.0000000e+0 1.00000000 0.0000000e+0
vn 0.37604990 0.0000000e+0 -0.92659941
vn -0.89854282 0.0000000e+0 -0.43888587
vn 0.89854282 0.0000000e+0 0.43888587
vn 0.0000000e+0 1.00000000 0.0000000e+0
vn 0.37604990 0.0000000e+0 -0.92659941
vn 0.89854282 0.0000000e+0 0.43888587
vn 0.0000000e+0 -1.00000000 0.0000000e+0
vn 0.37604990 0.0000000e+0 -0.92659941
g grass_sep2_default
usemtl default
s 2
f 9//26 13//37 16//47 12//36
f 11//33 15//44 14//40 10//29
s 3
f 9//25 12//34 11//31 10//28
f 14//41 15//45 16//48 13//38
g grass_sep2_image
usemtl image
s 1
f 10/6/30 14/8/42 13/7/39 9/5/27
f 12/5/35 16/7/46 15/8/43 11/6/32
o grass
#8 vertices, 6 faces
v -3.84811994 -0.35371803 -8.05269740
v -3.84811994 11.99428197 -8.05269740
v -3.84900466 11.99428197 -8.04618897
v -3.84900466 -0.35371803 -8.04618897
v 4.83756006 -0.35371803 7.74168119
v 4.83756006 11.99428197 7.74168119
v 4.83667535 11.99428197 7.74818963
v 4.83667535 -0.35371803 7.74818963
vt 0.0000000e+0 0.0000000e+0
vt 0.0000000e+0 1.00000000
vt 1.00000000 0.0000000e+0
vt 1.00000000 1.00000000
vn -0.99088711 0.0000000e+0 -0.13469498
vn 0.0000000e+0 -1.00000000 0.0000000e+0
vn 0.87624468 0.0000000e+0 -0.48186643
vn -0.99088711 0.0000000e+0 -0.13469498
vn 0.0000000e+0 1.00000000 0.0000000e+0
vn 0.87624468 0.0000000e+0 -0.48186643
vn -0.99088711 0.0000000e+0 -0.13469498
vn -0.87624468 0.0000000e+0 0.48186643
vn 0.0000000e+0 1.00000000 0.0000000e+0
vn -0.99088711 0.0000000e+0 -0.13469498
vn -0.87624468 0.0000000e+0 0.48186643
vn 0.0000000e+0 -1.00000000 0.0000000e+0
vn 0.0000000e+0 -1.00000000 0.0000000e+0
vn 0.99088711 0.0000000e+0 0.13469498
vn 0.87624468 0.0000000e+0 -0.48186643
vn 0.0000000e+0 1.00000000 0.0000000e+0
vn 0.99088711 0.0000000e+0 0.13469498
vn 0.87624468 0.0000000e+0 -0.48186643
vn -0.87624468 0.0000000e+0 0.48186643
vn 0.0000000e+0 1.00000000 0.0000000e+0
vn 0.99088711 0.0000000e+0 0.13469498
vn -0.87624468 0.0000000e+0 0.48186643
vn 0.0000000e+0 -1.00000000 0.0000000e+0
vn 0.99088711 0.0000000e+0 0.13469498
g grass_default
usemtl default
s 2
f 17//50 21//61 24//71 20//60
f 19//57 23//68 22//64 18//53
s 3
f 17//49 20//58 19//55 18//52
f 22//65 23//69 24//72 21//62
g grass_image
usemtl image
s 1
f 18/10/54 22/12/66 21/11/63 17/9/51
f 20/9/59 24/11/70 23/12/67 19/10/56
