# Exported from Wings 3D 2.1.5
mtllib grass2.mtl
o grass_sep3
#8 vertices, 6 faces
v -5.78782637 -1.64329316 -0.23990980
v -5.78782637 15.22870684 -0.23990980
v -5.78782637 15.22870684 -0.23390980
v -5.78782637 -1.64329316 -0.23390980
v 6.21217363 -1.64329316 -0.23990980
v 6.21217363 15.22870684 -0.23990980
v 6.21217363 15.22870684 -0.23390980
v 6.21217363 -1.64329316 -0.23390980
vt 0.0000000e+0 0.0000000e+0
vt 0.0000000e+0 1.00000000
vt 1.00000000 0.0000000e+0
vt 1.00000000 1.00000000
vn -1.00000000 0.0000000e+0 0.0000000e+0
vn 0.0000000e+0 -1.00000000 0.0000000e+0
vn -5.5511151e-17 0.0000000e+0 -1.00000000
vn -1.00000000 0.0000000e+0 0.0000000e+0
vn 0.0000000e+0 1.00000000 0.0000000e+0
vn -5.5511151e-17 0.0000000e+0 -1.00000000
vn -1.00000000 0.0000000e+0 0.0000000e+0
vn 5.5511151e-17 0.0000000e+0 1.00000000
vn 0.0000000e+0 1.00000000 0.0000000e+0
vn -1.00000000 0.0000000e+0 0.0000000e+0
vn 5.5511151e-17 0.0000000e+0 1.00000000
vn 0.0000000e+0 -1.00000000 0.0000000e+0
vn 0.0000000e+0 -1.00000000 0.0000000e+0
vn 1.00000000 0.0000000e+0 0.0000000e+0
vn -5.5511151e-17 0.0000000e+0 -1.00000000
vn 0.0000000e+0 1.00000000 0.0000000e+0
vn 1.00000000 0.0000000e+0 0.0000000e+0
vn -5.5511151e-17 0.0000000e+0 -1.00000000
vn 5.5511151e-17 0.0000000e+0 1.00000000
vn 0.0000000e+0 1.00000000 0.0000000e+0
vn 1.00000000 0.0000000e+0 0.0000000e+0
vn 5.5511151e-17 0.0000000e+0 1.00000000
vn 0.0000000e+0 -1.00000000 0.0000000e+0
vn 1.00000000 0.0000000e+0 0.0000000e+0
g grass_sep3_default
usemtl default
s 2
f 1//2 5//13 8//23 4//12
f 3//9 7//20 6//16 2//5
s 3
f 1//1 4//10 3//7 2//4
f 6//17 7//21 8//24 5//14
g grass_sep3_image
usemtl image
s 1
f 2/2/6 6/4/18 5/3/15 1/1/3
f 4/1/11 8/3/22 7/4/19 3/2/8
o grass_sep2
#8 vertices, 6 faces
v -1.52609022 -1.15088471 3.98066522
v -1.52609022 16.83951529 3.98066522
v -1.52170520 16.83951529 3.98244483
v -1.52170520 -1.15088471 3.98244483
v 2.37858155 -1.15088471 -4.01347413
v 2.37858155 16.83951529 -4.01347413
v 2.38296657 16.83951529 -4.01169452
v 2.38296657 -1.15088471 -4.01169452
vt 0.0000000e+0 0.0000000e+0
vt 0.0000000e+0 1.00000000
vt 1.00000000 0.0000000e+0
vt 1.00000000 1.00000000
vn -0.37604990 0.0000000e+0 0.92659941
vn 0.0000000e+0 -1.00000000 0.0000000e+0
vn -0.89854282 0.0000000e+0 -0.43888587
vn -0.37604990 0.0000000e+0 0.92659941
vn 0.0000000e+0 1.00000000 0.0000000e+0
vn -0.89854282 0.0000000e+0 -0.43888587
vn -0.37604990 0.0000000e+0 0.92659941
vn 0.89854282 0.0000000e+0 0.43888587
vn 0.0000000e+0 1.00000000 0.0000000e+0
vn -0.37604990 0.0000000e+0 0.92659941
vn 0.89854282 0.0000000e+0 0.43888587
vn 0.0000000e+0 -1.00000000 0.0000000e+0
vn 0.0000000e+0 -1.00000000 0.0000000e+0
vn 0.37604990 0.0000000e+0 -0.92659941
vn -0.89854282 0.0000000e+0 -0.43888587
vn 0.0000000e+0 1.00000000 0.0000000e+0
vn 0.37604990 0.0000000e+0 -0.92659941
vn -0.89854282 0.0000000e+0 -0.43888587
vn 0.89854282 0.0000000e+0 0.43888587
vn 0.0000000e+0 1.00000000 0.0000000e+0
vn 0.37604990 0.0000000e+0 -0.92659941
vn 0.89854282 0.0000000e+0 0.43888587
vn 0.0000000e+0 -1.00000000 0.0000000e+0
vn 0.37604990 0.0000000e+0 -0.92659941
g grass_sep2_default
usemtl default
s 2
f 9//26 13//37 16//47 12//36
f 11//33 15//44 14//40 10//29
s 3
f 9//25 12//34 11//31 10//28
f 14//41 15//45 16//48 13//38
g grass_sep2_image
usemtl image
s 1
f 10/6/30 14/8/42 13/7/39 9/5/27
f 12/5/35 16/7/46 15/8/43 11/6/32
o grass
#8 vertices, 6 faces
v -4.61774393 -0.42446163 -9.66323688
v -4.61774393 14.39313837 -9.66323688
v -4.61880559 14.39313837 -9.65542676
v -4.61880559 -0.42446163 -9.65542676
v 5.80507207 -0.42446163 9.29001743
v 5.80507207 14.39313837 9.29001743
v 5.80401041 14.39313837 9.29782755
v 5.80401041 -0.42446163 9.29782755
vt 0.0000000e+0 0.0000000e+0
vt 0.0000000e+0 1.00000000
vt 1.00000000 0.0000000e+0
vt 1.00000000 1.00000000
vn -0.99088711 0.0000000e+0 -0.13469498
vn 0.0000000e+0 -1.00000000 0.0000000e+0
vn 0.87624468 0.0000000e+0 -0.48186643
vn -0.99088711 0.0000000e+0 -0.13469498
vn 0.0000000e+0 1.00000000 0.0000000e+0
vn 0.87624468 0.0000000e+0 -0.48186643
vn -0.99088711 0.0000000e+0 -0.13469498
vn -0.87624468 0.0000000e+0 0.48186643
vn 0.0000000e+0 1.00000000 0.0000000e+0
vn -0.99088711 0.0000000e+0 -0.13469498
vn -0.87624468 0.0000000e+0 0.48186643
vn 0.0000000e+0 -1.00000000 0.0000000e+0
vn 0.0000000e+0 -1.00000000 0.0000000e+0
vn 0.99088711 0.0000000e+0 0.13469498
vn 0.87624468 0.0000000e+0 -0.48186643
vn 0.0000000e+0 1.00000000 0.0000000e+0
vn 0.99088711 0.0000000e+0 0.13469498
vn 0.87624468 0.0000000e+0 -0.48186643
vn -0.87624468 0.0000000e+0 0.48186643
vn 0.0000000e+0 1.00000000 0.0000000e+0
vn 0.99088711 0.0000000e+0 0.13469498
vn -0.87624468 0.0000000e+0 0.48186643
vn 0.0000000e+0 -1.00000000 0.0000000e+0
vn 0.99088711 0.0000000e+0 0.13469498
g grass_default
usemtl default
s 2
f 17//50 21//61 24//71 20//60
f 19//57 23//68 22//64 18//53
s 3
f 17//49 20//58 19//55 18//52
f 22//65 23//69 24//72 21//62
g grass_image
usemtl image
s 1
f 18/10/54 22/12/66 21/11/63 17/9/51
f 20/9/59 24/11/70 23/12/67 19/10/56
