# Exported from Wings 3D 2.1.5
mtllib grass.mtl
o grass_sep3
#8 vertices, 6 faces
v -4.82318864 -0.53934176 -0.19992483
v -4.82318864 9.46065824 -0.19992483
v -4.82318864 9.46065824 -0.19492483
v -4.82318864 -0.53934176 -0.19492483
v 5.17681136 -0.53934176 -0.19992483
v 5.17681136 9.46065824 -0.19992483
v 5.17681136 9.46065824 -0.19492483
v 5.17681136 -0.53934176 -0.19492483
vt 0.0000000e+0 0.0000000e+0
vt 0.0000000e+0 1.00000000
vt 1.00000000 0.0000000e+0
vt 1.00000000 1.00000000
vn -1.00000000 0.0000000e+0 0.0000000e+0
vn 0.0000000e+0 -1.00000000 0.0000000e+0
vn -5.5511151e-17 0.0000000e+0 -1.00000000
vn -1.00000000 0.0000000e+0 0.0000000e+0
vn 0.0000000e+0 1.00000000 0.0000000e+0
vn -5.5511151e-17 0.0000000e+0 -1.00000000
vn -1.00000000 0.0000000e+0 0.0000000e+0
vn 5.5511151e-17 0.0000000e+0 1.00000000
vn 0.0000000e+0 1.00000000 0.0000000e+0
vn -1.00000000 0.0000000e+0 0.0000000e+0
vn 5.5511151e-17 0.0000000e+0 1.00000000
vn 0.0000000e+0 -1.00000000 0.0000000e+0
vn 0.0000000e+0 -1.00000000 0.0000000e+0
vn 1.00000000 0.0000000e+0 0.0000000e+0
vn -5.5511151e-17 0.0000000e+0 -1.00000000
vn 0.0000000e+0 1.00000000 0.0000000e+0
vn 1.00000000 0.0000000e+0 0.0000000e+0
vn -5.5511151e-17 0.0000000e+0 -1.00000000
vn 5.5511151e-17 0.0000000e+0 1.00000000
vn 0.0000000e+0 1.00000000 0.0000000e+0
vn 1.00000000 0.0000000e+0 0.0000000e+0
vn 5.5511151e-17 0.0000000e+0 1.00000000
vn 0.0000000e+0 -1.00000000 0.0000000e+0
vn 1.00000000 0.0000000e+0 0.0000000e+0
g grass_sep3_default
usemtl default
s 2
f 1//2 5//13 8//23 4//12
f 3//9 7//20 6//16 2//5
s 3
f 1//1 4//10 3//7 2//4
f 6//17 7//21 8//24 5//14
g grass_sep3_image
usemtl image
s 1
f 2/2/6 6/4/18 5/3/15 1/1/3
f 4/1/11 8/3/22 7/4/19 3/2/8
o grass_sep2
#8 vertices, 6 faces
v -1.27174185 -0.33584607 11.96602756
v -1.27174185 7.66415393 11.96602756
v -1.26808767 7.66415393 11.97136213
v -1.26808767 -0.33584607 11.97136213
v 1.98215129 -0.33584607 -11.99721988
v 1.98215129 7.66415393 -11.99721988
v 1.98580548 7.66415393 -11.99188531
v 1.98580548 -0.33584607 -11.99188531
vt 0.0000000e+0 0.0000000e+0
vt 0.0000000e+0 1.00000000
vt 1.00000000 0.0000000e+0
vt 1.00000000 1.00000000
vn -0.82500314 0.0000000e+0 0.56512815
vn 0.0000000e+0 -1.00000000 0.0000000e+0
vn -0.99090653 0.0000000e+0 -0.13455205
vn -0.82500314 0.0000000e+0 0.56512815
vn 0.0000000e+0 1.00000000 0.0000000e+0
vn -0.99090653 0.0000000e+0 -0.13455205
vn -0.82500314 0.0000000e+0 0.56512815
vn 0.99090653 0.0000000e+0 0.13455205
vn 0.0000000e+0 1.00000000 0.0000000e+0
vn -0.82500314 0.0000000e+0 0.56512815
vn 0.99090653 0.0000000e+0 0.13455205
vn 0.0000000e+0 -1.00000000 0.0000000e+0
vn 0.0000000e+0 -1.00000000 0.0000000e+0
vn 0.82500314 0.0000000e+0 -0.56512815
vn -0.99090653 0.0000000e+0 -0.13455205
vn 0.0000000e+0 1.00000000 0.0000000e+0
vn 0.82500314 0.0000000e+0 -0.56512815
vn -0.99090653 0.0000000e+0 -0.13455205
vn 0.99090653 0.0000000e+0 0.13455205
vn 0.0000000e+0 1.00000000 0.0000000e+0
vn 0.82500314 0.0000000e+0 -0.56512815
vn 0.99090653 0.0000000e+0 0.13455205
vn 0.0000000e+0 -1.00000000 0.0000000e+0
vn 0.82500314 0.0000000e+0 -0.56512815
g grass_sep2_default
usemtl default
s 2
f 9//26 13//37 16//47 12//36
f 11//33 15//44 14//40 10//29
s 3
f 9//25 12//34 11//31 10//28
f 14//41 15//45 16//48 13//38
g grass_sep2_image
usemtl image
s 1
f 10/6/30 14/8/42 13/7/39 9/5/27
f 12/5/35 16/7/46 15/8/43 11/6/32
o grass
#8 vertices, 6 faces
v -7.78010805 -0.50308459 -6.29567808
v -7.78010805 6.49691541 -6.29567808
v -7.78179387 6.49691541 -6.29061709
v -7.78179387 -0.50308459 -6.29061709
v 8.77034927 -0.50308459 5.98610931
v 8.77034927 6.49691541 5.98610931
v 8.76866346 6.49691541 5.99117031
v 8.76866346 -0.50308459 5.99117031
vt 0.0000000e+0 0.0000000e+0
vt 0.0000000e+0 1.00000000
vt 1.00000000 0.0000000e+0
vt 1.00000000 1.00000000
vn -0.94874975 0.0000000e+0 -0.31602835
vn 0.0000000e+0 -1.00000000 0.0000000e+0
vn 0.59592252 0.0000000e+0 -0.80304193
vn -0.94874975 0.0000000e+0 -0.31602835
vn 0.0000000e+0 1.00000000 0.0000000e+0
vn 0.59592252 0.0000000e+0 -0.80304193
vn -0.94874975 0.0000000e+0 -0.31602835
vn -0.59592252 0.0000000e+0 0.80304193
vn 0.0000000e+0 1.00000000 0.0000000e+0
vn -0.94874975 0.0000000e+0 -0.31602835
vn -0.59592252 0.0000000e+0 0.80304193
vn 0.0000000e+0 -1.00000000 0.0000000e+0
vn 0.0000000e+0 -1.00000000 0.0000000e+0
vn 0.94874975 0.0000000e+0 0.31602835
vn 0.59592252 0.0000000e+0 -0.80304193
vn 0.0000000e+0 1.00000000 0.0000000e+0
vn 0.94874975 0.0000000e+0 0.31602835
vn 0.59592252 0.0000000e+0 -0.80304193
vn -0.59592252 0.0000000e+0 0.80304193
vn 0.0000000e+0 1.00000000 0.0000000e+0
vn 0.94874975 0.0000000e+0 0.31602835
vn -0.59592252 0.0000000e+0 0.80304193
vn 0.0000000e+0 -1.00000000 0.0000000e+0
vn 0.94874975 0.0000000e+0 0.31602835
g grass_default
usemtl default
s 2
f 17//50 21//61 24//71 20//60
f 19//57 23//68 22//64 18//53
s 3
f 17//49 20//58 19//55 18//52
f 22//65 23//69 24//72 21//62
g grass_image
usemtl image
s 1
f 18/10/54 22/12/66 21/11/63 17/9/51
f 20/9/59 24/11/70 23/12/67 19/10/56
