# Exported from Wings 3D 2.1.5
mtllib palm.mtl
o leafs_sep7
#42 vertices, 54 faces
v 6.27695213 43.88728405 -8.9409961e-17
v 3.13847606 43.88728405 5.43600000
v -3.13847606 43.88728405 5.43600000
v -6.27695213 43.88728405 6.7929497e-16
v -3.13847606 43.88728405 -5.43600000
v 3.13847606 43.88728405 -5.43600000
v 10.46158688 41.43504405 0.0000000e+0
v 5.23079344 41.43504405 9.06000000
v -5.23079344 41.43504405 9.06000000
v -10.46158688 41.43504405 1.2811749e-15
v -5.23079344 41.43504405 -9.06000000
v 5.23079344 41.43504405 -9.06000000
v 1.8968953e-16 42.90527692 0.0000000e+0
v 1.8968953e-16 41.68026805 0.0000000e+0
v 4.48879037 42.79372561 1.72308518
v 0.75215964 42.79372561 4.74894908
v -3.73663072 42.79372561 3.02586390
v -4.48879037 42.79372561 -1.72308518
v -0.75215964 42.79372561 -4.74894908
v 3.73663072 42.79372561 -3.02586390
v 7.48131728 39.51776838 2.87180864
v 1.25359940 39.51776838 7.91491514
v -6.22771787 39.51776838 5.04310650
v -7.48131728 39.51776838 -2.87180864
v -1.25359940 39.51776838 -7.91491514
v 6.22771787 39.51776838 -5.04310650
v 0.0000000e+0 41.03096460 3.9999926e-16
v 0.0000000e+0 39.84536410 3.9999926e-16
v 3.07436978 44.87181404 1.70415100
v 6.1346835e-2 44.87181404 3.51455783
v -3.01302294 44.87181404 1.81040683
v -3.07436978 44.87181404 -1.70415100
v -6.1346835e-2 44.87181404 -3.51455783
v 3.01302294 44.87181404 -1.81040683
v 5.12394963 43.58792865 2.84025166
v 0.10224473 43.58792865 5.85759638
v -5.02170490 43.58792865 3.01734472
v -5.12394963 43.58792865 -2.84025166
v -0.10224473 43.58792865 -5.85759638
v 5.02170490 43.58792865 -3.01734472
v -4.0675310e-16 43.61756141 4.1007880e-16
v -4.0675310e-16 43.19896991 4.1007880e-16
vt 2.8683821e-2 0.96308917
vt 2.8903033e-2 0.92122311
vt 3.1814152e-2 0.95989453
vt 3.2186417e-2 0.92039710
vt 3.3487899e-2 0.92837365
vt 3.4142395e-2 0.96586975
vt 6.4831289e-2 0.98421205
vt 6.5050502e-2 0.94234598
vt 6.5269714e-2 0.90047992
vt 6.5633221e-2 0.90905879
vt 6.5833792e-2 0.97996563
vt 6.6206057e-2 0.94046821
vt 6.6287718e-2 0.94655489
vt 6.6578323e-2 0.90097078
vt 6.6942215e-2 0.98405098
vt 7.2271608e-2 0.73402873
vt 7.5525800e-2 0.73985381
vt 7.9118642e-2 0.24973246
vt 8.2536211e-2 0.24400170
vt 8.2987088e-2 0.72629361
vt 9.1285543e-2 0.25087543
vt 9.8433041e-2 0.92724003
vt 9.9087537e-2 0.96473613
vt 0.10022570 0.96053931
vt 0.10059796 0.92104188
vt 0.10119797 0.96346886
vt 0.10141718 0.92160279
vt 0.24407487 0.63957909
vt 0.24602738 0.64307413
vt 0.24818309 0.34900132
vt 0.24933647 0.63408465
vt 0.25023363 0.34556287
vt 0.25431554 0.34883373
vt 0.49056209 0.97118938
vt 0.49151516 0.98793165
vt 0.49388147 0.78102211
vt 0.49562100 0.79192084
vt 0.49818692 0.98802597
vt 0.49886054 0.49577119
vt 0.49962406 0.79197743
vt 0.50177976 0.49790462
vt 0.50177976 0.49790462
vt 0.50383962 0.21052028
vt 0.50393547 0.20383181
vt 0.50537260 7.7832735e-3
vt 0.50715900 2.0353008e-2
vt 0.50793852 0.20388841
vt 0.51204436 7.8775996e-3
vt 0.74340554 0.64270865
vt 0.74838461 0.35745774
vt 0.75332589 0.65024637
vt 0.75537643 0.64680792
vt 0.75753214 0.35273511
vt 0.75948465 0.35623016
vt 0.90643554 0.74066696
vt 0.91473400 0.26524877
vt 0.92102331 0.75180754
vt 0.92444088 0.74607679
vt 0.92803372 0.25595544
vt 0.93128791 0.26178052
vn 0.17987242 0.98368995 -1.0545842e-16
vn 8.9936208e-2 0.98368995 0.15577408
vn -8.9936208e-2 0.98368995 0.15577408
vn -0.17987242 0.98368995 6.0261953e-17
vn -8.9936208e-2 0.98368995 -0.15577408
vn 8.9936208e-2 0.98368995 -0.15577408
vn 0.93751767 -0.34793767 -3.3800771e-16
vn 0.46875883 -0.34793767 0.81191412
vn -0.46875883 -0.34793767 0.81191412
vn -0.93751767 -0.34793767 2.2533847e-16
vn -0.46875883 -0.34793767 -0.81191412
vn 0.46875883 -0.34793767 -0.81191412
vn 9.4016092e-18 1.00000000 -5.5704535e-16
vn 2.8922647e-18 -1.00000000 -1.9869858e-16
vn 0.18848580 0.97940704 7.2352920e-2
vn 3.1583434e-2 0.97940704 0.19940995
vn -0.15690237 0.97940704 0.12705703
vn -0.18848580 0.97940704 -7.2352920e-2
vn -3.1583434e-2 0.97940704 -0.19940995
vn 0.15690237 0.97940704 -0.12705703
vn 0.81159679 -0.49421829 0.31154282
vn 0.13599440 -0.49421829 0.85863485
vn -0.67560239 -0.49421829 0.54709203
vn -0.81159679 -0.49421829 -0.31154282
vn -0.13599440 -0.49421829 -0.85863485
vn 0.67560239 -0.49421829 -0.54709203
vn -4.0186962e-17 1.00000000 6.2792128e-18
vn 2.3155401e-18 -1.00000000 -8.1622789e-17
vn 6.5590145e-2 0.99718408 3.6357211e-2
vn 1.3088041e-3 0.99718408 7.4981337e-2
vn -6.4281341e-2 0.99718408 3.8624126e-2
vn -6.5590145e-2 0.99718408 -3.6357211e-2
vn -1.3088041e-3 0.99718408 -7.4981337e-2
vn 6.4281341e-2 0.99718408 -3.8624126e-2
vn 0.84063681 -0.27604219 0.46597259
vn 1.6774302e-2 -0.27604219 0.96099913
vn -0.82386251 -0.27604219 0.49502654
vn -0.84063681 -0.27604219 -0.46597259
vn -1.6774302e-2 -0.27604219 -0.96099913
vn 0.82386251 -0.27604219 -0.49502654
vn 8.0051106e-17 1.00000000 -6.3884535e-16
vn -1.3918510e-17 -1.00000000 1.1239922e-16
g leafs_sep7_leafs_auv
usemtl leafs_auv
s 1
f 1/52/1 7/58/7 12/38/12 6/40/6
f 1/52/1 13/41/13 2/53/2
f 2/53/2 8/59/8 7/58/7 1/52/1
f 2/53/2 13/41/13 3/44/3
f 3/44/3 9/45/9 8/59/8 2/53/2
f 3/44/3 13/41/13 4/30/4
f 4/30/4 10/18/10 9/45/9 3/44/3
f 4/30/4 13/41/13 5/29/5
f 5/29/5 11/17/11 10/18/10 4/30/4
f 5/29/5 13/41/13 6/40/6
f 6/40/6 12/38/12 11/17/11 5/29/5
f 6/40/6 13/41/13 1/52/1
f 7/27/7 14/8/14 12/9/12
f 8/26/8 14/8/14 7/27/7
f 9/7/9 14/8/14 8/26/8
f 10/1/10 14/8/14 9/7/9
f 11/2/11 14/8/14 10/1/10
f 12/9/12 14/8/14 11/2/11
f 15/51/15 21/57/21 26/35/26 20/37/20
f 15/51/15 27/42/27 16/54/16
f 16/54/16 22/60/22 21/57/21 15/51/15
f 16/54/16 27/42/27 17/47/17
f 17/47/17 23/48/23 22/60/22 16/54/16
f 17/47/17 27/42/27 18/32/18
f 18/32/18 24/19/24 23/48/23 17/47/17
f 18/32/18 27/42/27 19/28/19
f 19/28/19 25/16/25 24/19/24 18/32/18
f 19/28/19 27/42/27 20/37/20
f 20/37/20 26/35/26 25/16/25 19/28/19
f 20/37/20 27/42/27 15/51/15
f 21/25/21 28/12/28 26/14/26
f 22/24/22 28/12/28 21/25/21
f 23/11/23 28/12/28 22/24/22
f 24/3/24 28/12/28 23/11/23
f 25/4/25 28/12/28 24/3/24
f 26/14/26 28/12/28 25/4/25
f 29/50/29 35/56/35 40/55/40 34/49/34
f 29/50/29 41/39/41 30/43/30
f 30/43/30 36/46/36 35/56/35 29/50/29
f 30/43/30 41/39/41 31/33/31
f 31/33/31 37/21/37 36/46/36 30/43/30
f 31/33/31 41/39/41 32/31/32
f 32/31/32 38/20/38 37/21/37 31/33/31
f 32/31/32 41/39/41 33/36/33
f 33/36/33 39/34/39 38/20/38 32/31/32
f 33/36/33 41/39/41 34/49/34
f 34/49/34 40/55/40 39/34/39 33/36/33
f 34/49/34 41/39/41 29/50/29
f 35/23/35 42/13/42 40/22/40
f 36/15/36 42/13/42 35/23/35
f 37/6/37 42/13/42 36/15/36
f 38/5/38 42/13/42 37/6/37
f 39/10/39 42/13/42 38/5/38
f 40/22/40 42/13/42 39/10/39
o Cube3
#20 vertices, 18 faces
v -1.11700000 -2.42103052 -1.11700000
v -1.11700000 -2.42103052 1.11700000
v -0.70710678 12.11296948 -6.9388939e-17
v 0.0000000e+0 12.11296948 0.70710678
v 1.11700000 -2.42103052 -1.11700000
v 1.11700000 -2.42103052 1.11700000
v 0.0000000e+0 12.11296948 -0.70710678
v 0.70710678 12.11296948 6.9388939e-17
v -0.60280439 23.29296948 -1.00000000
v -0.60280439 23.29296948 0.0000000e+0
v 0.39719561 23.29296948 0.0000000e+0
v 0.39719561 23.29296948 -1.00000000
v -0.28796682 34.47296948 -0.21061227
v -0.99507360 34.47296948 0.49649452
v -0.28796682 34.47296948 1.20360130
v 0.41913996 34.47296948 0.49649452
v -0.15100000 44.42191875 -0.15100000
v -0.15100000 44.42191875 0.15100000
v 0.15100000 44.42191875 0.15100000
v 0.15100000 44.42191875 -0.15100000
vt 0.0000000e+0 0.77328537
vt 7.2059368e-3 0.52606115
vt 1.5569543e-2 0.0000000e+0
vt 1.6309192e-2 1.00000000
vt 3.2373413e-2 0.29209113
vt 4.9815604e-2 0.77222262
vt 5.5119151e-2 0.52573114
vt 6.0413079e-2 8.6492667e-4
vt 6.6908163e-2 0.99852746
vt 7.8007580e-2 0.29260316
vt 7.8007580e-2 0.77328537
vt 8.5213517e-2 0.52606115
vt 9.3577123e-2 0.0000000e+0
vt 9.4316772e-2 1.00000000
vt 0.11038099 0.29209113
vt 0.12782318 0.77222262
vt 0.13312673 0.52573114
vt 0.13842066 8.6492667e-4
vt 0.14491574 0.99852746
vt 0.15601516 0.29260316
vt 0.15601516 0.77291433
vt 0.17732508 0.99861128
vt 0.18072669 5.0046030e-4
vt 0.18340141 0.52797460
vt 0.19331012 0.29350892
vt 0.20578550 0.77349192
vt 0.22569150 0.0000000e+0
vt 0.22794895 0.99931891
vt 0.23124139 0.52807832
vt 0.23905259 0.29312585
vt 0.23905259 0.77291433
vt 0.26036251 0.99861128
vt 0.26376413 5.0046030e-4
vt 0.26643884 0.52797460
vt 0.27634756 0.29350892
vt 0.28882293 0.77349192
vt 0.30872893 0.0000000e+0
vt 0.31098639 0.99931891
vt 0.31427882 0.52807832
vt 0.32209003 0.29312585
vt 0.32209003 0.0000000e+0
vt 0.32209003 4.9577178e-2
vt 0.32209003 4.9577178e-2
vt 0.32209003 9.9154356e-2
vt 0.37166721 6.9388939e-18
vt 0.37166721 4.9577178e-2
vt 0.37166721 9.9154356e-2
vn -0.71710691 -0.54122834 -0.43912364
vn -0.43912364 -0.54122834 0.71710691
vn -0.89103224 1.9341946e-2 -0.45352777
vn -0.45345105 5.1072598e-2 0.88981669
vn 0.43912364 -0.54122834 -0.71710691
vn 0.71710691 -0.54122834 0.43912364
vn 0.45400389 1.3225804e-2 -0.89090154
vn 0.89029706 4.4977614e-2 0.45315357
vn -0.70789920 2.7175919e-2 -0.70579047
vn -0.70770167 -6.1793590e-3 0.70648437
vn 0.70789920 -2.7175919e-2 0.70579047
vn 0.70770167 6.1793590e-3 -0.70648437
vn -0.28014585 4.2289748e-2 -0.95902548
vn -0.96043034 2.0211287e-2 0.27778600
vn 0.28143361 1.0319177e-2 0.95952521
vn 0.95983054 3.2418798e-2 -0.27870120
vn -0.14081108 0.58196948 -0.80092682
vn -0.76993676 0.62390840 0.13392417
vn 0.13633610 0.62729291 0.76675685
vn 0.79816782 0.58576731 -0.14072951
g Cube3_Cube3_auv
usemtl Cube3_auv
s 1
f 43/107/43 47/104/47 48/103/48 44/106/44
f 44/97/44 46/100/46 45/95/45 43/93/43
f 44/73/44 48/78/48 50/80/50 46/75/46
f 45/70/45 49/65/49 47/63/47 43/68/43
f 45/70/45 51/67/51 54/62/54 49/65/49
f 46/100/46 52/99/52 51/94/51 45/95/45
f 47/87/47 49/90/49 50/85/50 48/83/48
f 49/90/49 54/89/54 53/84/53 50/85/50
f 50/80/50 53/77/53 52/72/52 46/75/46
f 51/67/51 55/66/55 58/61/58 54/62/54
f 52/99/52 56/96/56 55/91/55 51/94/51
f 53/77/53 57/76/57 56/71/56 52/72/52
f 54/89/54 58/86/58 57/81/57 53/84/53
f 55/66/55 59/69/59 62/64/62 58/61/58
f 56/96/56 60/98/60 59/92/59 55/91/55
f 57/76/57 61/79/61 60/74/60 56/71/56
f 58/86/58 62/88/62 61/82/61 57/81/57
f 60/101/60 61/105/61 62/106/62 59/102/59
